FILE "Kamen Rider ZO (1994)(Wolf Team)(JP).img" BINARY
  TRACK 01 MODE1/2352
    INDEX 01 00:00:00
  TRACK 02 AUDIO
    PREGAP 00:02:00
    INDEX 01 42:31:00
  TRACK 03 AUDIO
    INDEX 00 42:45:36
    INDEX 01 42:47:35
  TRACK 04 AUDIO
    INDEX 00 43:00:63
    INDEX 01 43:02:62
  TRACK 05 AUDIO
    INDEX 00 44:05:56
    INDEX 01 44:07:55
